SplineFontDB: 3.2
FontName: BIZUDGothic-Regular
FullName: BIZ UDGothic
FamilyName: BIZ UDGothic
Weight: Book
Copyright: Copyright 2022 The BIZ UDGothic Project Authors (https://github.com/googlefonts/morisawa-biz-ud-gothic)
Version: 1.051
ItalicAngle: 0
UnderlinePosition: -297
UnderlineWidth: 102
Ascent: 1802
Descent: 246
InvalidEm: 0
sfntRevision: 0x00010d0e
LayerCount: 2
Layer: 0 1 "+gMyXYgAA" 1
Layer: 1 1 "+Uk2XYgAA" 0
HasVMetrics: 1
XUID: [1021 728 -894377814 31043]
StyleMap: 0x0040
FSType: 0
OS2Version: 4
OS2_WeightWidthSlopeOnly: 0
OS2_UseTypoMetrics: 0
CreationTime: 1694023325
ModificationTime: 1717861546
PfmFamily: 17
TTFWeight: 400
TTFWidth: 5
LineGap: 0
VLineGap: 0
Panose: 2 11 4 0 0 0 0 0 0 0
OS2TypoAscent: 1802
OS2TypoAOffset: 0
OS2TypoDescent: -246
OS2TypoDOffset: 0
OS2TypoLinegap: 0
OS2WinAscent: 1802
OS2WinAOffset: 0
OS2WinDescent: 246
OS2WinDOffset: 0
HheadAscent: 1802
HheadAOffset: 0
HheadDescent: -246
HheadDOffset: 0
OS2SubXSize: 1024
OS2SubYSize: 1556
OS2SubXOff: 0
OS2SubYOff: 307
OS2SupXSize: 1024
OS2SupYSize: 1556
OS2SupXOff: 0
OS2SupYOff: 0
OS2StrikeYSize: 102
OS2StrikeYPos: 727
OS2CapHeight: 1567
OS2XHeight: 1108
OS2Vendor: 'MRSW'
OS2CodePages: 20020009.00000000
OS2UnicodeRanges: e00002f7.2ac7edf8.00000012.00000000
MarkAttachClasses: 1
DEI: 91125
TtTable: prep
NPUSHB
 255
 160
 67
 18
 31
 159
 67
 32
 31
 158
 69
 205
 31
 157
 69
 255
 31
 156
 68
 255
 31
 155
 67
 255
 31
 154
 67
 94
 31
 153
 67
 41
 31
 152
 66
 255
 31
 151
 66
 54
 31
 150
 65
 255
 31
 149
 64
 171
 31
 148
 64
 255
 31
 147
 64
 64
 31
 146
 62
 34
 31
 145
 62
 64
 31
 144
 62
 255
 31
 143
 63
 255
 31
 142
 62
 61
 31
 141
 62
 13
 31
 140
 61
 8
 31
 139
 61
 57
 31
 138
 61
 128
 31
 137
 61
 255
 31
 136
 56
 16
 31
 135
 56
 34
 31
 134
 60
 255
 31
 133
 56
 255
 31
 132
 56
 114
 31
 131
 59
 255
 31
 130
 57
 255
 31
 129
 58
 94
 31
 128
 58
 255
 31
 127
 58
 128
 31
 126
 55
 255
 31
 125
 54
 255
 31
 124
 54
 205
 31
 123
 53
 255
 31
 122
 53
 205

StartChar: uni3071
Encoding: 12401 12401 0
Width: 2048
GlyphClass: 1
Flags: W
LayerCount: 2
Fore
SplineSet
1746.328125 1682.12792969 m 0,0,1
 1702.57842576 1681.99250411 1702.57842576 1681.99250411 1664.42871094 1661.328125 c 0,2,3
 1571 1611 1571 1611 1570.828125 1505.328125 c 0,4,5
 1571 1455 1571 1455 1599.42871094 1411.72851562 c 0,6,7
 1651 1330 1651 1330 1747.62792969 1329.828125 c 0,8,9
 1814 1330 1814 1330 1864.62792969 1375.328125 c 0,10,11
 1923 1429 1923 1429 1923.12792969 1505.328125 c 0,12,13
 1923 1586 1923 1586 1862.02832031 1639.22851562 c 0,14,15
 1811 1682 1811 1682 1746.328125 1682.12792969 c 0,0,1
1748.92871094 1814.72851562 m 0,16,17
 1837 1815 1837 1815 1916.62792969 1762.72851562 c 0,18,19
 2056 1670 2056 1670 2055.72851562 1505.328125 c 0,20,21
 2056 1381 2056 1381 1964.72851562 1288.22851562 c 0,22,23
 1938.41197872 1261.76694969 1938.41197872 1261.76694969 1908.87790383 1243 c 1,24,-1
 1911 1243 l 1,25,-1
 1911 1102 l 1,26,-1
 1485 1102 l 1,27,-1
 1491 483 l 1,28,29
 1728 375 1728 375 1964 172 c 1,30,-1
 1878 31 l 1,31,32
 1689 201 1689 201 1493 320 c 1,33,34
 1490 111 1490 111 1400 16 c 0,35,36
 1308 -80 1308 -80 1110 -80 c 0,37,38
 930 -80 930 -80 807 -6 c 0,39,40
 664 81 664 81 664 250 c 0,41,42
 664 379 664 379 760 464 c 0,43,44
 881 572 881 572 1097 572 c 0,45,46
 1202 572 1202 572 1331 539 c 1,47,-1
 1323 1102 l 1,48,-1
 664 1102 l 1,49,-1
 664 1243 l 1,50,-1
 1319 1243 l 1,51,-1
 1315 1651 l 1,52,-1
 1475 1651 l 1,53,-1
 1475.01327519 1650.09728686 l 1,54,55
 1476.10470427 1652.13959621 1476.10470427 1652.13959621 1477.22851562 1654.17871094 c 0,56,57
 1516 1725 1516 1725 1582.52832031 1766.62792969 c 0,58,59
 1658 1815 1658 1815 1748.92871094 1814.72851562 c 0,16,17
254 -76 m 1,60,61
 219 255 219 255 219 601 c 0,62,63
 219 1151 219 1151 291 1647 c 1,64,-1
 449 1622 l 1,65,66
 376 1203 376 1203 376 666 c 0,67,68
 376 296 376 296 414 -49 c 1,69,-1
 254 -76 l 1,60,61
1334 395 m 1,70,71
 1205 437 1205 437 1094 437 c 0,72,73
 978 437 978 437 904 395 c 0,74,75
 820 346 820 346 820 255 c 0,76,77
 820 143 820 143 934 96 c 0,78,79
 1005 67 1005 67 1111 67 c 0,80,81
 1334 67 1334 67 1334 336 c 2,82,-1
 1334 395 l 1,70,71
1587.40929464 1243 m 1,83,84
 1527.24052203 1279.88495424 1527.24052203 1279.88495424 1490.22851562 1336.328125 c 0,85,86
 1484.48027069 1345.09677267 1484.48027069 1345.09677267 1479.36744281 1354.01388858 c 1,87,-1
 1481 1243 l 1,88,-1
 1587.40929464 1243 l 1,83,84
EndSplineSet
EndChar

StartChar: uni3074
Encoding: 12404 12404 1
Width: 2048
GlyphClass: 1
Flags: W
LayerCount: 2
Fore
SplineSet
1740.0703125 1652.79980469 m 0,0,1
 1693 1653 1693 1653 1650.37011719 1626.79980469 c 0,2,3
 1567 1576 1567 1576 1567.16992188 1478.59960938 c 0,4,5
 1567 1412 1567 1412 1611.37011719 1362.90039062 c 0,6,7
 1663 1306 1663 1306 1741.37011719 1305.70019531 c 0,8,9
 1784 1306 1784 1306 1821.96972656 1325.20019531 c 0,10,11
 1914 1375 1914 1375 1914.27050781 1478.59960938 c 0,12,13
 1914 1553 1914 1553 1860.96972656 1604.70019531 c 0,14,15
 1812 1653 1812 1653 1740.0703125 1652.79980469 c 0,0,1
1741.37011719 1788 m 0,16,17
 1831 1788 1831 1788 1910.37011719 1736 c 0,18,19
 2049 1644 2049 1644 2049.46972656 1478.59960938 c 0,20,21
 2049 1354 2049 1354 1958.46972656 1261.5 c 0,22,23
 1867 1170 1867 1170 1738.77050781 1170.5 c 0,24,25
 1667 1170 1667 1170 1602.27050781 1204.29980469 c 0,26,27
 1549.0728305 1231.6718386 1549.0728305 1231.6718386 1510.76174372 1274.8050849 c 1,28,29
 1606.01944283 1135.92173028 1606.01944283 1135.92173028 1722 1022 c 0,30,31
 1821 925 1821 925 1948 834 c 1,32,-1
 1860 699 l 1,33,34
 1620 896 1620 896 1475 1143 c 1,35,36
 1559 877 1559 877 1559 660 c 0,37,38
 1559 337 1559 337 1434 156 c 0,39,40
 1253 -106 1253 -106 870 -106 c 0,41,42
 521 -106 521 -106 349 123 c 0,43,44
 230 281 230 281 230 558 c 0,45,46
 230 726 230 726 324 924 c 0,47,48
 456 1200 456 1200 688 1403 c 1,49,50
 426 1275 426 1275 127 1192 c 1,51,-1
 72 1342 l 1,52,53
 495 1435 495 1435 848 1598 c 1,54,-1
 944 1477 l 1,55,56
 610 1205 610 1205 472 911 c 0,57,58
 390 736 390 736 390 571 c 0,59,60
 390 357 390 357 462 244 c 0,61,62
 585 52 585 52 881 52 c 0,63,64
 1167 52 1167 52 1309 272 c 0,65,66
 1420 444 1420 444 1420 741 c 0,67,68
 1420 1064 1420 1064 1293 1336 c 1,69,-1
 1428 1407 l 1,70,71
 1443.44913327 1379.93311852 1443.44913327 1379.93311852 1459.57037736 1353.67582507 c 1,72,73
 1431.99177741 1414.0425331 1431.99177741 1414.0425331 1431.96972656 1481.20019531 c 0,74,75
 1432 1557 1432 1557 1470.96972656 1627.45019531 c 128,-1,76
 1510 1698 1510 1698 1576.27050781 1739.90039062 c 0,77,78
 1652 1788 1652 1788 1741.37011719 1788 c 0,16,17
EndSplineSet
EndChar

StartChar: uni3077
Encoding: 12407 12407 2
Width: 2048
GlyphClass: 1
Flags: W
LayerCount: 2
Fore
SplineSet
1315 1272 m 1,0,1
 1004 1433 1004 1433 588 1522 c 1,2,-1
 653 1655 l 1,3,4
 1062 1579 1062 1579 1388 1413 c 1,5,-1
 1315 1272 l 1,0,1
649 240 m 1,6,7
 755 74 755 74 917 74 c 0,8,9
 1009 74 1009 74 1059 131 c 0,10,11
 1110 187 1110 187 1110 293 c 0,12,13
 1110 443 1110 443 1014 664 c 0,14,15
 924 872 924 872 790 1028 c 1,16,-1
 921 1098 l 1,17,18
 1086 907 1086 907 1187 676 c 0,19,20
 1282 456 1282 456 1282 285 c 0,21,22
 1282 124 1282 124 1205 28 c 0,23,24
 1111 -88 1111 -88 921 -88 c 0,25,26
 701 -88 701 -88 573 117 c 1,27,-1
 649 240 l 1,6,7
94 188 m 1,28,29
 283 494 283 494 364 946 c 1,30,-1
 518 897 l 1,31,32
 420 377 420 377 235 106 c 1,33,-1
 94 188 l 1,28,29
1767 141 m 1,34,35
 1667 567 1667 567 1464 930 c 1,36,-1
 1599 991 l 1,37,38
 1818 635 1818 635 1919 209 c 1,39,-1
 1767 141 l 1,34,35
1727.73730469 1776.76074219 m 4,40,41
 1817 1777 1817 1777 1896.73730469 1724.76074219 c 4,42,43
 2036 1632 2036 1632 2035.83691406 1467.36035156 c 4,44,45
 2036 1343 2036 1343 1943.53710938 1250.26074219 c 4,46,47
 1853 1159 1853 1159 1725.13671875 1159.26074219 c 4,48,49
 1654 1159 1654 1159 1587.33691406 1193.06054688 c 4,50,51
 1512.26770754 1232.43303987 1512.26770754 1232.43303987 1469.03710938 1298.36035156 c 4,52,53
 1417 1378 1417 1378 1417.03710938 1469.9609375 c 4,54,55
 1417 1545 1417 1545 1456.03710938 1616.2109375 c 4,56,57
 1495 1687 1495 1687 1561.33691406 1728.66113281 c 4,58,59
 1637 1777 1637 1777 1727.73730469 1776.76074219 c 4,40,41
1726.43652344 1641.56054688 m 4,60,61
 1678 1642 1678 1642 1635.43652344 1615.56054688 c 4,62,63
 1552 1566 1552 1566 1552.23730469 1467.36035156 c 4,64,65
 1552 1401 1552 1401 1596.43652344 1351.66113281 c 4,66,67
 1648 1294 1648 1294 1727.73730469 1294.4609375 c 4,68,69
 1771 1294 1771 1294 1808.33691406 1313.9609375 c 4,70,71
 1901 1363 1901 1363 1900.63671875 1467.36035156 c 4,72,73
 1900.98772336 1538.51143915 1900.98772336 1538.51143915 1846.03710938 1593.4609375 c 4,74,75
 1798 1642 1798 1642 1726.43652344 1641.56054688 c 4,60,61
EndSplineSet
EndChar

StartChar: uni307A
Encoding: 12410 12410 3
Width: 2048
GlyphClass: 1
Flags: W
LayerCount: 2
Fore
SplineSet
131 358 m 1,0,1
 305 572 305 572 473 873 c 0,2,3
 596 1094 596 1094 674 1288 c 0,4,5
 725 1415 725 1415 832 1415 c 0,6,7
 911 1415 911 1415 973 1340 c 0,8,9
 990 1318 990 1318 1051 1214 c 0,10,11
 1150 1047 1150 1047 1334 807 c 0,12,13
 1612 447 1612 447 1915 176 c 1,14,-1
 1806 33 l 1,15,16
 1477 334 1477 334 1162 761 c 0,17,18
 1014 962 1014 962 903 1150 c 0,19,20
 856 1231 856 1231 833 1231 c 0,21,22
 805 1231 805 1231 770 1137 c 0,23,24
 686 913 686 913 502 603 c 0,25,26
 382 402 382 402 262 244 c 1,27,-1
 131 358 l 1,0,1
1598.15039062 1632.40039062 m 260,28,29
 1688 1632 1688 1632 1767.15039062 1580.40039062 c 4,30,31
 1906 1488 1906 1488 1906.25 1323 c 4,32,33
 1906 1197 1906 1197 1815.25 1104.59960938 c 4,34,35
 1724 1014 1724 1014 1595.54980469 1013.59960938 c 4,36,37
 1521.06573905 1014.01642004 1521.06573905 1014.01642004 1457.75 1047.40039062 c 4,38,39
 1386 1085 1386 1085 1340.75 1152.70019531 c 4,40,41
 1289 1232 1289 1232 1288.75 1324.29980469 c 4,42,43
 1289 1401 1289 1401 1327.75 1471.84960938 c 4,44,45
 1367 1543 1367 1543 1433.04980469 1584.29980469 c 4,46,47
 1508 1632 1508 1632 1598.15039062 1632.40039062 c 260,28,29
1596.84960938 1495.90039062 m 4,48,49
 1550 1496 1550 1496 1507.15039062 1469.90039062 c 4,50,51
 1424 1420 1424 1420 1423.95019531 1321.70019531 c 4,52,53
 1424 1255 1424 1255 1468.15039062 1206 c 4,54,55
 1520 1149 1520 1149 1598.15039062 1148.79980469 c 4,56,57
 1641 1149 1641 1149 1678.75 1168.29980469 c 4,58,59
 1771 1218 1771 1218 1771.04980469 1321.70019531 c 4,60,61
 1771 1396 1771 1396 1717.75 1447.79980469 c 4,62,63
 1668 1496 1668 1496 1596.84960938 1495.90039062 c 4,48,49
EndSplineSet
EndChar

StartChar: uni307D
Encoding: 12413 12413 4
Width: 2048
GlyphClass: 1
Flags: W
LayerCount: 2
Fore
SplineSet
248 -88 m 1,0,1
 204 240 204 240 204 655 c 0,2,3
 204 1183 204 1183 273 1632 c 1,4,-1
 430 1610 l 1,5,6
 363 1217 363 1217 363 681 c 0,7,8
 363 274 363 274 406 -59 c 1,9,-1
 248 -88 l 1,0,1
1311 369 m 1,10,11
 1194 416 1194 416 1077 416 c 0,12,13
 969 416 969 416 900 379 c 0,14,15
 811 330 811 330 811 236 c 0,16,17
 811 163 811 163 878 116 c 0,18,19
 959 59 959 59 1080 59 c 0,20,21
 1311 59 1311 59 1311 281 c 2,22,-1
 1311 369 l 1,10,11
1738.69921875 1662.5 m 0,23,24
 1691.84960938 1662.59960938 1691.84960938 1662.59960938 1649 1636.5 c 0,25,26
 1565.84960938 1586.59960938 1565.84960938 1586.59960938 1565.79980469 1488.29980469 c 0,27,28
 1565.84960938 1421.59960938 1565.84960938 1421.59960938 1610 1372.59960938 c 0,29,30
 1661.84960938 1315.59960938 1661.84960938 1315.59960938 1740 1315.39941406 c 0,31,32
 1782.84960938 1315.59960938 1782.84960938 1315.59960938 1820.59960938 1334.89941406 c 0,33,34
 1912.84960938 1384.59960938 1912.84960938 1384.59960938 1912.89941406 1488.29980469 c 0,35,36
 1912.84960938 1562.59960938 1912.84960938 1562.59960938 1859.59960938 1614.39941406 c 0,37,38
 1809.84960938 1662.59960938 1809.84960938 1662.59960938 1738.69921875 1662.5 c 0,23,24
1740 1799 m 0,39,40
 1829.84960938 1798.59960938 1829.84960938 1798.59960938 1909 1747 c 0,41,42
 2047.84960938 1654.59960938 2047.84960938 1654.59960938 2048.09960938 1489.59960938 c 0,43,44
 2047.84960938 1363.59960938 2047.84960938 1363.59960938 1957.09960938 1271.19921875 c 0,45,46
 1865.84960938 1180.59960938 1865.84960938 1180.59960938 1737.39941406 1180.19921875 c 0,47,48
 1662.91503906 1180.61621094 1662.91503906 1180.61621094 1599.59960938 1214 c 0,49,50
 1527.84960938 1251.59960938 1527.84960938 1251.59960938 1482.59960938 1319.29980469 c 0,51,52
 1471.38896606 1336.47858392 1471.38896606 1336.47858392 1462.59516102 1354.26743884 c 1,53,-1
 1467 1038 l 1,54,-1
 1890 1038 l 1,55,-1
 1890 897 l 1,56,-1
 1469 897 l 1,57,-1
 1473 457 l 1,58,59
 1717 350 1717 350 1950 170 c 1,60,-1
 1864 27 l 1,61,62
 1713 154 1713 154 1473 291 c 1,63,64
 1466 80 1466 80 1344 -9 c 0,65,66
 1247 -80 1247 -80 1086 -80 c 0,67,68
 904 -80 904 -80 780 9 c 0,69,70
 653 100 653 100 653 237 c 0,71,72
 653 399 653 399 797 482 c 0,73,74
 909 547 909 547 1076 547 c 0,75,76
 1183 547 1183 547 1311 512 c 1,77,-1
 1307 897 l 1,78,-1
 674 897 l 1,79,-1
 674 1038 l 1,80,-1
 1307 1038 l 1,81,-1
 1303 1397 l 1,82,-1
 717 1397 l 1,83,-1
 717 1540 l 1,84,-1
 1434.80540211 1540 l 1,85,86
 1443.40798439 1590.56105361 1443.40798439 1590.56105361 1469.59960938 1638.44921875 c 0,87,88
 1508.84960938 1709.59960938 1508.84960938 1709.59960938 1574.89941406 1750.89941406 c 0,89,90
 1649.84960938 1798.59960938 1649.84960938 1798.59960938 1740 1799 c 0,39,40
EndSplineSet
EndChar

StartChar: uni30D1
Encoding: 12497 12497 5
Width: 2048
GlyphClass: 1
Flags: W
LayerCount: 2
Fore
SplineSet
152 115 m 1,0,1
 325 363 325 363 447 749 c 0,2,3
 569 1134 569 1134 603 1522 c 1,4,-1
 766 1487 l 1,5,6
 632 486 632 486 287 -8 c 1,7,-1
 152 115 l 1,0,1
1696 -8 m 1,8,9
 1560 218 1560 218 1435 553 c 0,10,11
 1270 996 1270 996 1170 1491 c 1,12,-1
 1326 1540 l 1,13,14
 1419 1056 1419 1056 1599 601 c 0,15,16
 1710 320 1710 320 1840 104 c 1,17,-1
 1696 -8 l 1,8,9
1740.15039062 1791.25 m 256,18,19
 1830 1791 1830 1791 1909.15039062 1739.25 c 0,20,21
 2048 1647 2048 1647 2048.25 1481.84960938 c 0,22,23
 2048 1357 2048 1357 1957.25 1264.75 c 0,24,25
 1866 1174 1866 1174 1737.54980469 1173.75 c 0,26,27
 1663.36112337 1174.00922042 1663.36112337 1174.00922042 1599.75 1207.54980469 c 0,28,29
 1528 1245 1528 1245 1482.75 1312.84960938 c 0,30,31
 1431 1391 1431 1391 1430.75 1484.45019531 c 0,32,33
 1431 1560 1431 1560 1469.75 1630.70019531 c 0,34,35
 1509 1702 1509 1702 1575.04980469 1743.15039062 c 0,36,37
 1650 1791 1650 1791 1740.15039062 1791.25 c 256,18,19
1738.84960938 1656.04980469 m 0,38,39
 1692 1656 1692 1656 1649.15039062 1630.04980469 c 0,40,41
 1566 1581 1566 1581 1565.95019531 1481.84960938 c 0,42,43
 1566 1416 1566 1416 1610.15039062 1366.15039062 c 0,44,45
 1662 1309 1662 1309 1740.15039062 1308.95019531 c 0,46,47
 1783 1309 1783 1309 1820.75 1329.75 c 0,48,49
 1913 1379 1913 1379 1913.04980469 1481.84960938 c 0,50,51
 1913 1556 1913 1556 1859.75 1607.95019531 c 0,52,53
 1809 1656 1809 1656 1738.84960938 1656.04980469 c 0,38,39
EndSplineSet
EndChar

StartChar: uni30D4
Encoding: 12500 12500 6
Width: 2048
GlyphClass: 1
Flags: W
LayerCount: 2
Fore
SplineSet
332 1620 m 1,0,-1
 498 1620 l 1,1,-1
 498 969 l 1,2,3
 1049 1123 1049 1123 1416 1341 c 1,4,-1
 1512 1200 l 1,5,6
 1036 957 1036 957 498 817 c 1,7,-1
 498 324 l 2,8,9
 498 235 498 235 553 212 c 0,10,11
 625 183 625 183 979 183 c 256,12,13
 1333 183 1333 183 1715 215 c 1,14,-1
 1715 49 l 1,15,16
 1410 28 1410 28 1045 28 c 0,17,18
 622 28 622 28 513 47 c 0,19,20
 393 68 393 68 355 150 c 0,21,22
 332 200 332 200 332 287 c 2,23,-1
 332 1620 l 1,0,-1
1742.75 1777.25 m 4,24,25
 1831 1777 1831 1777 1910.45019531 1725.25 c 4,26,27
 2050 1633 2050 1633 2049.54980469 1467.84960938 c 4,28,29
 2050 1343 2050 1343 1958.54980469 1250.75 c 4,30,31
 1868 1160 1868 1160 1738.84960938 1159.75 c 4,32,33
 1667 1160 1667 1160 1602.34960938 1193.54980469 c 4,34,35
 1527.79118736 1232.14334363 1527.79118736 1232.14334363 1484.04980469 1298.84960938 c 4,36,37
 1432 1378 1432 1378 1432.04980469 1470.45019531 c 4,38,39
 1432 1538 1432 1538 1463.25 1601.75 c 4,40,41
 1550 1777 1550 1777 1742.75 1777.25 c 4,24,25
1740.15039062 1644.65039062 m 4,42,43
 1699 1645 1699 1645 1658.25 1623.84960938 c 4,44,45
 1565 1573 1565 1573 1564.65039062 1467.84960938 c 4,46,47
 1565 1417 1565 1417 1593.25 1374.25 c 4,48,49
 1645 1292 1645 1292 1741.45019531 1292.34960938 c 4,50,51
 1808 1292 1808 1292 1858.45019531 1337.84960938 c 4,52,53
 1917 1391 1917 1391 1916.95019531 1467.84960938 c 4,54,55
 1917 1548 1917 1548 1855.84960938 1601.75 c 4,56,57
 1806 1645 1806 1645 1740.15039062 1644.65039062 c 4,42,43
EndSplineSet
EndChar

StartChar: uni30D7
Encoding: 12503 12503 7
Width: 2048
GlyphClass: 1
Flags: W
LayerCount: 2
Fore
SplineSet
1754.79003906 1678.54980469 m 0,0,1
 1708 1679 1708 1679 1665.08984375 1652.54980469 c 0,2,3
 1582 1603 1582 1603 1581.88964844 1504.34960938 c 0,4,5
 1582 1438 1582 1438 1626.08984375 1388.65039062 c 0,6,7
 1678 1331 1678 1331 1756.08984375 1331.45019531 c 0,8,9
 1795.97269793 1331.03176118 1795.97269793 1331.03176118 1836.68945312 1352.25 c 0,10,11
 1929 1400 1929 1400 1928.99023438 1504.34960938 c 0,12,13
 1929 1578 1929 1578 1875.68945312 1630.45019531 c 0,14,15
 1826 1679 1826 1679 1754.79003906 1678.54980469 c 0,0,1
1756.08984375 1813.75 m 0,16,17
 1846 1814 1846 1814 1925.08984375 1761.75 c 0,18,19
 2064 1669 2064 1669 2064.18945312 1504.34960938 c 0,20,21
 2064 1380 2064 1380 1973.18945312 1287.25 c 0,22,23
 1882 1196 1882 1196 1753.49023438 1196.25 c 0,24,25
 1721.79636838 1196.13916715 1721.79636838 1196.13916715 1691.37619143 1202.76971169 c 1,26,27
 1653.78249974 635.377118661 1653.78249974 635.377118661 1395 341 c 0,28,29
 1226 149 1226 149 948 34 c 0,30,31
 790 -31 790 -31 557 -85 c 1,32,-1
 473 60 l 1,33,34
 1013 161 1013 161 1258 438 c 0,35,36
 1508 721 1508 721 1522 1277 c 1,37,-1
 209 1277 l 1,38,-1
 209 1427 l 1,39,-1
 1457.28814201 1427 l 1,40,41
 1446.8286346 1465.73978532 1446.8286346 1465.73978532 1446.68945312 1506.95019531 c 0,42,43
 1447 1582 1447 1582 1485.68945312 1653.20019531 c 0,44,45
 1525 1724 1525 1724 1590.99023438 1765.65039062 c 0,46,47
 1666 1814 1666 1814 1756.08984375 1813.75 c 0,16,17
EndSplineSet
EndChar

StartChar: uni30DA
Encoding: 12506 12506 8
Width: 2048
GlyphClass: 1
Flags: W
LayerCount: 2
Fore
SplineSet
79 564 m 5,0,1
 277.802734375 565 277.802734375 565 277.802734375 565 c 5,2,3
 540 923 540 923 747 1417 c 5,4,-1
 927 1417 l 5,5,6
 1257 850 1257 850 1904 233 c 5,7,-1
 1800 88 l 5,8,9
 1506 365 1506 365 1229 709 c 4,10,11
 1009 981 1009 981 846 1241 c 5,12,-1
 837 1241 l 5,13,14
 665 832 665 832 379 433 c 5,15,16
 83 424 83 424 83 424 c 5,17,-1
 79 564 l 5,0,1
1596.15039062 1626.40039062 m 256,18,19
 1686 1626 1686 1626 1765.15039062 1574.40039062 c 0,20,21
 1904 1482 1904 1482 1904.25 1317 c 0,22,23
 1903.9946886 1189.34429797 1903.9946886 1189.34429797 1813.25 1098.59960938 c 0,24,25
 1722 1008 1722 1008 1593.54980469 1007.59960938 c 0,26,27
 1522 1008 1522 1008 1455.75 1041.40039062 c 0,28,29
 1383 1079 1383 1079 1338.75 1146.70019531 c 0,30,31
 1287 1226 1287 1226 1286.75 1318.29980469 c 0,32,33
 1287 1395 1287 1395 1325.75 1465.84960938 c 0,34,35
 1365 1537 1365 1537 1431.04980469 1578.29980469 c 0,36,37
 1506 1626 1506 1626 1596.15039062 1626.40039062 c 256,18,19
1594.84960938 1489.90039062 m 0,38,39
 1548 1490 1548 1490 1505.15039062 1463.90039062 c 0,40,41
 1422 1414 1422 1414 1421.95019531 1315.70019531 c 0,42,43
 1422 1249 1422 1249 1466.15039062 1200 c 0,44,45
 1518 1143 1518 1143 1596.15039062 1142.79980469 c 0,46,47
 1639 1143 1639 1143 1676.75 1162.29980469 c 0,48,49
 1769 1212 1769 1212 1769.04980469 1315.70019531 c 0,50,51
 1769 1390 1769 1390 1715.75 1441.79980469 c 0,52,53
 1666 1490 1666 1490 1594.84960938 1489.90039062 c 0,38,39
EndSplineSet
EndChar

StartChar: uni30DD
Encoding: 12509 12509 9
Width: 2048
GlyphClass: 1
Flags: W
LayerCount: 2
Fore
SplineSet
1736.84960938 1666.65039062 m 0,0,1
 1694 1667 1694 1667 1654.95019531 1645.84960938 c 0,2,3
 1561 1595 1561 1595 1561.34960938 1489.84960938 c 0,4,5
 1561.01936293 1441.81627834 1561.01936293 1441.81627834 1589.95019531 1396.25 c 0,6,7
 1642 1314 1642 1314 1738.15039062 1314.34960938 c 0,8,9
 1804 1314 1804 1314 1855.15039062 1359.84960938 c 0,10,11
 1914 1413 1914 1413 1913.65039062 1489.84960938 c 0,12,13
 1914.00762009 1571.74695994 1914.00762009 1571.74695994 1852.54980469 1623.75 c 0,14,15
 1802 1667 1802 1667 1736.84960938 1666.65039062 c 0,0,1
1739.45019531 1799.25 m 0,16,17
 1828 1799 1828 1799 1907.15039062 1747.25 c 0,18,19
 2046 1655 2046 1655 2046.25 1489.84960938 c 0,20,21
 2046 1365 2046 1365 1955.25 1272.75 c 0,22,23
 1911.83538156 1229.57326988 1911.83538156 1229.57326988 1860 1206.88242851 c 1,24,-1
 1860 1131 l 1,25,-1
 1096 1131 l 1,26,-1
 1096 -102 l 1,27,-1
 936 -102 l 1,28,-1
 936 1131 l 1,29,-1
 189 1131 l 1,30,-1
 189 1276 l 1,31,-1
 936 1276 l 1,32,-1
 936 1675 l 1,33,-1
 1096 1675 l 1,34,-1
 1096 1276 l 1,35,-1
 1516.87233198 1276 l 1,36,37
 1497.01521596 1296.46091216 1497.01521596 1296.46091216 1480.75 1320.84960938 c 0,38,39
 1429 1399 1429 1399 1428.75 1492.45019531 c 0,40,41
 1429 1568 1429 1568 1467.75 1638.70019531 c 0,42,43
 1507 1710 1507 1710 1573.04980469 1751.15039062 c 0,44,45
 1648 1799 1648 1799 1739.45019531 1799.25 c 0,16,17
1769 84 m 1,46,47
 1555 403 1555 403 1398 879 c 1,48,-1
 1550 934 l 1,49,50
 1683 534 1683 534 1915 186 c 1,51,-1
 1769 84 l 1,46,47
141 166 m 1,52,53
 361 454 361 454 438 899 c 1,54,-1
 594 854 l 1,55,56
 502 348 502 348 280 53 c 1,57,-1
 141 166 l 1,52,53
EndSplineSet
EndChar

StartChar: uni30D8
Encoding: 12504 12504 12
Width: 2048
Flags: W
LayerCount: 2
Fore
SplineSet
79 564 m 5,0,1
 277.802734375 565 277.802734375 565 277.802734375 565 c 1,2,3
 540 923 540 923 747 1417 c 1,4,-1
 927 1417 l 1,5,6
 1257 850 1257 850 1904 233 c 1,7,-1
 1800 88 l 1,8,9
 1506 365 1506 365 1229 709 c 0,10,11
 1009 981 1009 981 846 1241 c 1,12,-1
 837 1241 l 1,13,14
 665 832 665 832 379 433 c 1,15,16
 83 424 83 424 83 424 c 5,17,-1
 79 564 l 5,0,1
EndSplineSet
EndChar

StartChar: uni30D9
Encoding: 12505 12505 13
Width: 2048
Flags: W
LayerCount: 2
Fore
SplineSet
79 564 m 5,0,1
 277.802734375 565 277.802734375 565 277.802734375 565 c 5,2,3
 540 923 540 923 747 1417 c 5,4,-1
 927 1417 l 5,5,6
 1257 850 1257 850 1904 233 c 5,7,-1
 1800 88 l 5,8,9
 1506 365 1506 365 1229 709 c 4,10,11
 1009 981 1009 981 846 1241 c 5,12,-1
 837 1241 l 5,13,14
 665 832 665 832 379 433 c 5,15,16
 83 424 83 424 83 424 c 5,17,-1
 79 564 l 5,0,1
1452 1096 m 1,18,19
 1380 1277 1380 1277 1271 1430 c 1,20,-1
 1394 1477 l 1,21,22
 1513 1309 1513 1309 1577 1147 c 1,23,-1
 1452 1096 l 1,18,19
1710 1186 m 1,24,25
 1633 1377 1633 1377 1532 1522 c 1,26,-1
 1650 1565 l 1,27,28
 1754 1433 1754 1433 1831 1241 c 1,29,-1
 1710 1186 l 1,24,25
EndSplineSet
EndChar

StartChar: uni30DB
Encoding: 12507 12507 14
Width: 2048
Flags: W
LayerCount: 2
Fore
SplineSet
141 385 m 1,0,1
 508 812 508 812 747 1389 c 1,2,-1
 927 1389 l 1,3,4
 1254 825 1254 825 1904 203 c 1,5,-1
 1800 59 l 1,6,7
 1510 333 1510 333 1234 673 c 0,8,9
 1011 948 1011 948 846 1210 c 1,10,-1
 837 1210 l 1,11,12
 603 663 603 663 268 268 c 1,13,-1
 141 385 l 1,0,1
1596.15039062 1626.40039062 m 260,14,15
 1686 1626 1686 1626 1765.15039062 1574.40039062 c 4,16,17
 1904 1482 1904 1482 1904.25 1317 c 4,18,19
 1903.9946886 1189.34429797 1903.9946886 1189.34429797 1813.25 1098.59960938 c 4,20,21
 1722 1008 1722 1008 1593.54980469 1007.59960938 c 4,22,23
 1522 1008 1522 1008 1455.75 1041.40039062 c 4,24,25
 1383 1079 1383 1079 1338.75 1146.70019531 c 4,26,27
 1287 1226 1287 1226 1286.75 1318.29980469 c 4,28,29
 1287 1395 1287 1395 1325.75 1465.84960938 c 4,30,31
 1365 1537 1365 1537 1431.04980469 1578.29980469 c 4,32,33
 1506 1626 1506 1626 1596.15039062 1626.40039062 c 260,14,15
1594.84960938 1489.90039062 m 4,34,35
 1548 1490 1548 1490 1505.15039062 1463.90039062 c 4,36,37
 1422 1414 1422 1414 1421.95019531 1315.70019531 c 4,38,39
 1422 1249 1422 1249 1466.15039062 1200 c 4,40,41
 1518 1143 1518 1143 1596.15039062 1142.79980469 c 4,42,43
 1639 1143 1639 1143 1676.75 1162.29980469 c 4,44,45
 1769 1212 1769 1212 1769.04980469 1315.70019531 c 4,46,47
 1769 1390 1769 1390 1715.75 1441.79980469 c 4,48,49
 1666 1490 1666 1490 1594.84960938 1489.90039062 c 4,34,35
EndSplineSet
EndChar

StartChar: uni529B
Encoding: 21147 21147 15
Width: 2048
Flags: W
LayerCount: 2
Fore
SplineSet
1688 1167 m 1,0,-1
 1042 1167 l 1,1,2
 998 699 998 699 809 376 c 0,3,4
 629 67 629 67 234 -160 c 1,5,-1
 119 -33 l 1,6,7
 542 194 542 194 729 590 c 0,8,9
 840 825 840 825 874 1167 c 1,10,-1
 156 1167 l 1,11,-1
 156 1317 l 1,12,-1
 886 1317 l 1,13,-1
 907 1751 l 1,14,-1
 1073 1751 l 1,15,-1
 1052 1317 l 1,16,-1
 1494.63602941 1317 l 1,17,-1
 1731 1556 l 1,18,-1
 2008 1242 l 1,19,-1
 1854.97234057 1067.11124637 l 1,20,21
 1835.81297287 287.346817329 1835.81297287 287.346817329 1782 53 c 0,22,23
 1751 -85 1751 -85 1640 -126 c 0,24,25
 1580 -148 1580 -148 1468 -148 c 0,26,27
 1291 -148 1291 -148 1118 -125 c 1,28,-1
 1086 41 l 1,29,30
 1295 8 1295 8 1458 8 c 0,31,32
 1572 8 1572 8 1601 70 c 0,33,34
 1619 109 1619 109 1638 264 c 0,35,36
 1678 582 1678 582 1686 1091 c 1,37,-1
 1688 1167 l 1,0,-1
EndSplineSet
EndChar

StartChar: uni529C
Encoding: 21148 21148 16
Width: 2048
Flags: W
LayerCount: 2
Fore
SplineSet
1462 1284 m 5,0,-1
 1731 1556 l 5,1,-1
 2008 1242 l 5,2,-1
 1840 1050 l 5,3,-1
 1860 1317 l 5,4,-1
 1462 1284 l 5,0,-1
EndSplineSet
EndChar

StartChar: uni5DE5
Encoding: 24037 24037 17
Width: 2048
Flags: W
LayerCount: 2
Fore
SplineSet
1100 1360 m 1,0,-1
 1100 156 l 1,1,-1
 1583 156 l 1,2,-1
 1790 423 l 1,3,-1
 1997 156 l 1,4,-1
 1997 4 l 1,5,-1
 51 4 l 1,6,-1
 51 156 l 1,7,-1
 934 156 l 1,8,-1
 934 1360 l 1,9,-1
 178 1360 l 1,10,-1
 178 1507 l 1,11,-1
 1458 1507 l 1,12,-1
 1665 1774 l 1,13,-1
 1872 1507 l 1,14,-1
 1872 1360 l 1,15,-1
 1100 1360 l 1,0,-1
EndSplineSet
EndChar

StartChar: uni5DE6
Encoding: 24038 24038 18
Width: 2048
Flags: W
LayerCount: 2
Fore
SplineSet
1458 1507 m 5,0,-1
 1665 1774 l 5,1,-1
 1872 1507 l 5,2,-1
 1458 1507 l 5,0,-1
EndSplineSet
EndChar

StartChar: uni53E3
Encoding: 21475 21475 19
Width: 2048
Flags: W
LayerCount: 2
Fore
SplineSet
397 1399 m 1,0,-1
 397 220 l 1,1,-1
 1652 220 l 1,2,-1
 1652 1399 l 1,3,-1
 397 1399 l 1,0,-1
1818 1301.85714286 m 1,4,-1
 1818 -88 l 1,5,-1
 1652 -88 l 1,6,-1
 1652 68 l 1,7,-1
 397 68 l 1,8,-1
 397 -86 l 1,9,-1
 229 -86 l 1,10,-1
 229 1546 l 1,11,-1
 1452.63602941 1546 l 1,12,-1
 1689 1785 l 1,13,-1
 1966 1471 l 1,14,-1
 1818 1301.85714286 l 1,4,-1
EndSplineSet
EndChar

StartChar: uni53E4
Encoding: 21476 21476 20
Width: 2048
Flags: W
LayerCount: 2
Fore
SplineSet
1462 1284 m 5,0,-1
 1731 1556 l 5,1,-1
 2008 1242 l 5,2,-1
 1840 1050 l 5,3,-1
 1860 1317 l 5,4,-1
 1462 1284 l 5,0,-1
EndSplineSet
EndChar

StartChar: uni4E01
Encoding: 19969 19969 21
Width: 2048
Flags: W
LayerCount: 2
Fore
SplineSet
1458 1507 m 5,0,-1
 1665 1774 l 5,1,-1
 1872 1507 l 5,2,-1
 1458 1507 l 5,0,-1
EndSplineSet
EndChar

StartChar: uni4E00
Encoding: 19968 19968 22
Width: 2048
Flags: W
LayerCount: 2
Fore
SplineSet
1970 907 m 1,0,-1
 1970 741 l 1,1,-1
 78 741 l 1,2,-1
 78 907 l 1,3,-1
 1556 907 l 1,4,-1
 1763 1174 l 1,5,-1
 1970 907 l 1,0,-1
EndSplineSet
EndChar

StartChar: uni4E8D
Encoding: 20109 20109 23
Width: 2048
Flags: W
LayerCount: 2
Fore
SplineSet
1458 1507 m 5,0,-1
 1665 1774 l 5,1,-1
 1872 1507 l 5,2,-1
 1458 1507 l 5,0,-1
EndSplineSet
EndChar

StartChar: uni4E8C
Encoding: 20108 20108 24
Width: 2048
Flags: W
LayerCount: 2
Fore
SplineSet
1753 1423 m 1,0,-1
 1753 1265 l 1,1,-1
 297 1265 l 1,2,-1
 297 1423 l 1,3,-1
 1339 1423 l 1,4,-1
 1546 1690 l 1,5,-1
 1753 1423 l 1,0,-1
1979 230 m 1,6,-1
 1979 74 l 1,7,-1
 70 74 l 1,8,-1
 70 230 l 1,9,-1
 1565 230 l 1,10,-1
 1772 497 l 1,11,-1
 1979 230 l 1,6,-1
EndSplineSet
EndChar

StartChar: uni30FC
Encoding: 12540 12540 25
Width: 2048
Flags: W
LayerCount: 2
Fore
SplineSet
156 1045 m 1,0,-1
 350 895 l 1,1,2
 350 895 350 895 1882 895 c 1,3,-1
 1882 737 l 1,4,-1
 350 737 l 1,5,6
 350 737 350 737 156 887 c 1,7,-1
 156 1045 l 1,0,-1
EndSplineSet
EndChar
